<?xml version="1.0" standalone="no"?>
<!DOCTYPE svg PUBLIC "-//W3C//DTD SVG 20010904//EN"
 "http://www.w3.org/TR/2001/REC-SVG-20010904/DTD/svg10.dtd">
<svg version="1.0" xmlns="http://www.w3.org/2000/svg"
 width="898.000000pt" height="562.000000pt" viewBox="0 0 898.000000 562.000000"
 preserveAspectRatio="xMidYMid meet">

<g transform="translate(0.000000,562.000000) scale(0.100000,-0.100000)"
fill="#000000" stroke="none">
<path d="M4160 4185 c-6 -8 -9 -22 -6 -33 7 -21 -34 -65 -75 -81 -23 -8 -30
-6 -55 20 -38 40 -107 65 -139 51 -32 -15 -52 -48 -60 -102 l-7 -45 22 20 23
20 -8 -25 c-6 -20 -5 -23 6 -12 19 17 34 15 19 -3 -11 -13 -10 -14 4 -9 9 3
16 1 16 -5 0 -6 7 -11 15 -11 8 0 24 -18 35 -40 13 -26 34 -47 55 -57 25 -12
35 -23 35 -40 0 -19 -5 -23 -32 -23 -18 1 -44 7 -58 15 -45 26 -88 17 -58 -13
8 -8 8 -15 -3 -28 -13 -15 -10 -16 26 -10 113 19 125 19 125 -2 0 -11 -11 -56
-24 -99 -14 -43 -39 -132 -56 -198 -17 -66 -43 -157 -56 -202 l-25 -83 -35 0
-34 0 0 -140 0 -140 -45 0 -45 0 0 249 0 250 24 3 24 3 -56 140 c-30 77 -56
141 -57 142 -1 2 -76 25 -167 52 l-166 50 -153 -46 c-85 -24 -159 -46 -164
-48 -8 -2 -66 -137 -122 -281 -4 -10 3 -14 21 -14 l26 0 0 -251 0 -250 -42 3
-43 3 -2 120 c-1 66 -2 128 -2 138 -1 10 -9 17 -22 17 -21 0 -21 1 -16 326 3
203 1 340 -5 363 -14 50 -83 116 -136 130 -87 24 -176 -18 -218 -102 -25 -48
-25 -52 -24 -290 2 -452 4 -427 -25 -427 l-25 0 0 -299 c0 -299 0 -300 -22
-307 -29 -9 -177 -95 -253 -147 -165 -113 -246 -185 -421 -374 l-39 -41 -135
-17 c-74 -9 -148 -18 -165 -21 -16 -2 -120 -15 -230 -29 -110 -14 -204 -27
-210 -30 -5 -2 303 -4 686 -4 l696 -1 29 22 c16 12 31 25 34 28 6 6 18 14 188
122 68 43 128 78 133 78 6 0 38 14 71 30 101 50 323 129 451 160 319 78 640
88 927 29 52 -10 120 -24 150 -30 58 -12 101 -26 240 -80 190 -72 344 -153
547 -286 l112 -73 165 0 c147 0 165 2 159 16 -3 10 -13 14 -25 11 -15 -4 -17
-3 -8 8 21 26 -149 221 -312 359 -32 27 -58 52 -58 56 0 10 165 38 305 51 420
39 907 -77 1320 -316 112 -64 268 -166 273 -177 2 -5 220 -8 485 -7 l482 1
-320 48 c-176 27 -331 52 -345 55 -14 4 -61 46 -105 94 -106 116 -247 236
-375 322 -198 133 -524 275 -743 325 -43 10 -67 20 -64 27 3 7 13 32 22 57 10
25 23 51 29 59 9 12 6 13 -16 7 -27 -6 -28 -5 -28 31 0 38 -25 101 -55 138
-16 20 -16 20 -35 -5 -26 -33 -53 -116 -47 -141 6 -24 1 -24 -31 2 -23 18 -27
19 -30 5 -2 -9 -10 -16 -17 -16 -11 0 -13 8 -9 29 9 42 -48 161 -76 161 -14 0
-60 -106 -60 -138 0 -35 -6 -38 -34 -17 -19 15 -46 21 -33 9 6 -6 -35 -44 -47
-44 -3 0 -6 16 -6 35 0 35 -34 120 -52 131 -26 16 -77 -74 -80 -141 -3 -50 -2
-49 -29 -35 -22 13 -24 4 -4 -30 22 -38 19 -40 -40 -40 -63 0 -72 15 -26 43
20 12 32 30 41 64 7 27 21 63 31 81 20 35 8 43 -23 15 -17 -15 -18 -15 -18 1
0 34 -31 124 -50 146 l-19 21 -35 -53 c-29 -43 -36 -62 -36 -102 0 -39 -3 -47
-12 -38 -7 7 -18 12 -25 12 -8 0 -4 -17 12 -52 14 -29 25 -58 25 -65 0 -6 11
-20 25 -31 14 -11 25 -24 25 -29 0 -5 -69 -17 -153 -26 -210 -23 -399 -63
-562 -119 l-60 -20 -88 27 -87 27 0 219 0 219 -29 0 c-20 0 -31 6 -35 18 -6
21 -61 217 -81 292 -9 30 -22 91 -30 134 -8 44 -19 84 -25 90 -5 5 -10 23 -10
38 0 25 3 28 35 28 25 0 35 -4 35 -16 0 -9 3 -14 8 -12 74 36 74 37 31 62 -29
17 -32 17 -41 2 -5 -9 -22 -16 -38 -16 -25 0 -30 4 -30 24 0 17 7 26 24 30 36
9 80 66 112 145 16 39 35 71 42 71 6 0 12 3 13 8 0 4 2 19 4 35 2 15 -1 27 -7
27 -5 0 -8 6 -5 14 4 10 0 12 -14 9 -13 -4 -19 0 -19 11 0 20 -43 22 -60 1z
m-890 -605 l0 -40 -90 0 -90 0 0 40 0 40 90 0 90 0 0 -40z m310 0 l0 -40 -90
0 -90 0 0 40 0 40 90 0 90 0 0 -40z m524 -92 c14 -54 10 -58 -54 -58 -65 0
-69 5 -50 54 8 23 15 26 54 26 37 0 45 -3 50 -22z m-534 -328 l0 -250 -24 0
c-17 0 -50 28 -121 105 -53 58 -100 105 -104 105 -4 0 -50 -47 -102 -105 -66
-73 -101 -105 -116 -105 l-23 0 0 250 0 250 245 0 245 0 0 -250z m568 201 c19
-62 21 -61 -88 -61 -55 0 -100 3 -100 6 0 3 5 25 11 50 l11 44 78 0 77 0 11
-39z m37 -133 l7 -38 -131 0 c-141 0 -142 0 -121 54 9 25 12 25 117 28 59 2
111 1 115 -2 3 -3 10 -22 13 -42z m1439 -325 c9 -26 16 -48 16 -50 0 -2 -21
-3 -46 -3 -45 0 -46 1 -39 28 8 33 32 72 44 72 5 0 16 -21 25 -47z m225 -22
c20 -59 16 -71 -21 -64 -18 3 -35 7 -37 9 -1 1 5 26 14 54 18 55 26 55 44 1z"/>
<path d="M3149 3353 c17 -21 62 -72 101 -113 l70 -75 100 105 c55 58 100 108
100 113 0 4 -90 7 -201 7 l-201 0 31 -37z"/>
<path d="M3100 3148 c0 -170 3 -216 13 -212 16 8 181 193 184 207 2 7 -42 59
-97 117 l-99 105 -1 -217z"/>
<path d="M3463 3281 c-40 -43 -83 -92 -97 -108 l-25 -30 94 -104 c52 -57 98
-105 103 -107 5 -1 10 92 10 213 1 118 -2 215 -6 215 -4 0 -39 -36 -79 -79z"/>
<path d="M913 1890 c-44 -10 -82 -36 -95 -66 -9 -19 -8 -32 5 -59 14 -28 36
-44 139 -97 98 -50 124 -68 126 -86 7 -47 -50 -73 -114 -52 -26 9 -40 21 -50
46 -15 35 -27 39 -87 25 l-27 -6 17 -35 c27 -53 88 -80 184 -80 119 0 179 33
179 96 0 45 -39 81 -146 133 -90 43 -134 75 -134 96 0 47 113 63 154 22 13
-13 25 -29 27 -36 6 -18 99 -4 99 14 0 8 -13 27 -30 43 -44 45 -156 64 -247
42z"/>
<path d="M3690 1820 c0 -38 -3 -70 -7 -70 -5 1 -19 7 -33 15 -32 18 -91 19
-134 1 -41 -17 -56 -55 -56 -138 0 -64 17 -108 52 -132 27 -19 106 -21 144 -4
22 10 28 10 32 0 2 -7 23 -12 53 -12 l49 0 0 205 0 205 -50 0 -50 0 0 -70z
m-12 -98 c9 -6 12 -33 10 -97 l-3 -89 -38 -9 c-29 -7 -43 -5 -62 7 -23 15 -25
22 -25 94 0 47 5 83 12 90 14 14 86 16 106 4z"/>
<path d="M6060 1685 l0 -205 44 0 c30 0 46 5 50 15 5 14 9 14 35 0 62 -31 139
-15 172 37 16 27 19 46 17 110 -3 64 -7 80 -27 102 -32 34 -95 43 -145 22 -21
-9 -42 -16 -47 -16 -5 0 -9 32 -9 70 l0 70 -45 0 -45 0 0 -205z m210 35 c16
-16 20 -33 20 -79 0 -104 -25 -132 -105 -117 l-36 7 3 97 3 97 30 6 c52 11 64
10 85 -11z"/>
<path d="M6650 1685 l0 -205 45 0 45 0 0 205 0 205 -45 0 -45 0 0 -205z"/>
<path d="M7230 1819 c0 -64 -2 -70 -17 -64 -79 32 -147 28 -183 -10 -28 -29
-39 -133 -20 -189 22 -68 105 -95 185 -62 31 13 35 13 35 0 0 -10 12 -14 45
-14 l45 0 0 205 0 205 -45 0 -45 0 0 -71z m-7 -96 c4 -2 7 -46 7 -98 l0 -94
-35 -7 c-53 -10 -81 1 -94 37 -23 67 -9 163 26 172 18 5 81 -2 96 -10z"/>
<path d="M7990 1819 c0 -64 -2 -70 -17 -64 -79 32 -147 28 -183 -10 -28 -29
-39 -133 -20 -189 22 -68 105 -95 185 -62 31 13 35 13 35 0 0 -10 12 -14 45
-14 l45 0 0 205 0 205 -45 0 -45 0 0 -71z m-7 -96 c4 -2 7 -46 7 -98 l0 -94
-35 -7 c-53 -10 -81 1 -94 37 -23 67 -9 163 26 172 18 5 81 -2 96 -10z"/>
<path d="M1250 1850 c0 -29 1 -30 50 -30 49 0 50 1 50 30 0 29 -1 30 -50 30
-49 0 -50 -1 -50 -30z"/>
<path d="M1790 1831 c0 -44 -3 -50 -22 -53 -15 -2 -23 -10 -23 -23 0 -13 8
-21 23 -23 21 -3 22 -7 22 -103 0 -93 2 -102 25 -124 21 -22 33 -25 90 -25 62
0 65 1 65 24 0 19 -4 23 -19 19 -10 -3 -28 0 -40 6 -19 11 -21 20 -21 106 l0
95 40 0 c36 0 40 3 40 25 0 23 -4 25 -40 25 l-40 0 0 50 0 50 -50 0 -50 0 0
-49z"/>
<path d="M5468 1828 c-3 -46 -6 -53 -25 -56 -13 -2 -23 -10 -23 -17 0 -7 10
-15 23 -17 21 -3 22 -8 27 -118 5 -110 6 -115 30 -127 14 -7 51 -13 83 -13 50
0 57 2 57 20 0 15 -7 20 -28 20 -46 0 -52 15 -52 122 l0 98 40 0 c29 0 40 4
40 15 0 11 -11 15 -40 15 l-40 0 0 55 0 55 -44 0 -45 0 -3 -52z"/>
<path d="M6460 1855 c0 -23 3 -25 50 -25 47 0 50 2 50 25 0 23 -3 25 -50 25
-47 0 -50 -2 -50 -25z"/>
<path d="M6820 1855 c0 -23 3 -25 50 -25 47 0 50 2 50 25 0 23 -3 25 -50 25
-47 0 -50 -2 -50 -25z"/>
<path d="M1250 1630 l0 -150 50 0 50 0 0 150 0 150 -50 0 -50 0 0 -150z"/>
<path d="M1486 1770 c-61 -19 -85 -70 -48 -103 9 -8 52 -31 95 -51 83 -37 102
-60 72 -82 -26 -19 -44 -17 -85 8 -52 33 -116 22 -83 -14 31 -34 70 -48 137
-48 95 0 146 26 146 74 0 32 -33 59 -123 100 -60 27 -78 40 -75 53 5 29 74 30
104 3 19 -19 28 -21 59 -14 l37 9 -22 27 c-33 43 -136 61 -214 38z"/>
<path d="M2083 1765 c-44 -19 -63 -61 -63 -137 0 -72 24 -122 66 -138 34 -13
134 -13 173 1 29 10 61 52 61 79 0 5 -21 10 -49 10 -44 0 -49 -3 -55 -25 -8
-33 -50 -44 -76 -20 -13 12 -20 31 -20 57 l0 38 100 0 100 0 0 25 c0 46 -26
91 -63 108 -42 20 -130 22 -174 2z m127 -54 c21 -41 13 -51 -40 -51 -46 0 -50
2 -50 23 0 13 5 28 12 35 19 19 66 15 78 -7z"/>
<path d="M2380 1630 l0 -150 50 0 50 0 0 120 c0 118 0 120 24 126 13 3 35 4
47 2 24 -3 24 -5 27 -125 l3 -123 49 0 50 0 0 119 c0 131 0 131 73 131 l27 0
0 -125 0 -125 50 0 50 0 0 134 c0 109 -3 138 -16 150 -21 22 -101 21 -146 -2
-35 -18 -37 -18 -52 0 -20 23 -91 24 -143 3 -33 -14 -38 -14 -45 0 -6 10 -24
15 -53 15 l-45 0 0 -150z"/>
<path d="M3016 1770 c-35 -11 -62 -35 -69 -61 -5 -17 0 -19 40 -19 36 0 51 5
69 25 28 30 47 32 75 4 33 -33 21 -50 -50 -69 -82 -23 -110 -38 -127 -72 -17
-34 -4 -70 33 -87 38 -18 102 -13 133 9 l29 20 6 -20 c5 -16 15 -20 53 -20
l47 0 -5 119 c-6 134 -15 153 -79 171 -43 12 -115 12 -155 0z m134 -185 c0
-33 -27 -65 -56 -65 -23 0 -55 35 -49 52 7 18 85 59 98 51 4 -2 7 -19 7 -38z"/>
<path d="M3923 1765 c-44 -19 -63 -61 -63 -137 0 -72 24 -122 66 -138 34 -13
134 -13 173 1 29 10 61 52 61 79 0 5 -21 10 -49 10 -44 0 -49 -3 -55 -25 -8
-33 -50 -44 -76 -20 -13 12 -20 31 -20 57 l0 38 100 0 100 0 0 25 c0 46 -26
91 -63 108 -42 20 -130 22 -174 2z m127 -54 c21 -41 13 -51 -40 -51 -46 0 -50
2 -50 23 0 13 5 28 12 35 19 19 66 15 78 -7z"/>
<path d="M4421 1767 c-55 -19 -76 -57 -76 -136 0 -39 6 -79 14 -94 22 -42 73
-60 150 -55 73 5 104 20 120 55 17 38 14 43 -31 43 -37 0 -45 -4 -60 -30 -19
-34 -56 -40 -82 -14 -23 22 -23 166 0 188 27 28 70 17 85 -20 7 -20 15 -24 54
-24 51 0 57 12 25 53 -34 43 -127 59 -199 34z"/>
<path d="M4763 1770 c-54 -17 -73 -52 -73 -136 0 -40 5 -84 11 -98 19 -41 71
-59 156 -54 64 4 78 9 101 32 23 22 27 36 30 99 4 82 -7 119 -41 142 -30 19
-140 28 -184 15z m101 -40 c25 -9 26 -12 26 -99 0 -81 -2 -91 -21 -101 -30
-17 -62 -8 -77 20 -20 39 -11 158 13 176 22 17 26 17 59 4z"/>
<path d="M5243 1761 c-17 -11 -42 -38 -55 -60 -13 -23 -26 -41 -30 -41 -5 0
-8 25 -8 55 l0 55 -45 0 -45 0 0 -145 0 -145 45 0 45 0 0 39 c0 54 36 105 78
109 l32 3 0 -75 0 -76 50 0 50 0 0 128 c0 87 -4 134 -12 145 -21 27 -68 31
-105 8z"/>
<path d="M5755 1766 c-40 -15 -65 -39 -65 -63 0 -9 15 -13 45 -13 25 0 45 4
45 9 0 18 31 41 55 41 30 0 55 -25 55 -53 0 -19 -10 -25 -70 -41 -84 -21 -130
-55 -130 -96 0 -63 106 -95 164 -49 27 21 46 18 46 -7 0 -10 12 -14 43 -14
l44 0 -4 108 c-2 59 -6 117 -9 129 -10 49 -140 78 -219 49z m135 -181 c0 -39
-4 -47 -25 -57 -38 -17 -80 0 -80 32 0 20 10 30 45 48 24 12 48 22 52 22 4 0
8 -20 8 -45z"/>
<path d="M7465 1766 c-40 -15 -65 -39 -65 -63 0 -9 15 -13 45 -13 25 0 45 4
45 9 0 18 31 41 55 41 30 0 55 -25 55 -53 0 -19 -10 -25 -70 -41 -84 -21 -130
-55 -130 -96 0 -63 106 -95 164 -49 27 21 46 18 46 -7 0 -10 12 -14 43 -14
l44 0 -4 108 c-2 59 -6 117 -9 129 -10 49 -140 78 -219 49z m135 -181 c0 -39
-4 -47 -25 -57 -38 -17 -80 0 -80 32 0 20 10 30 45 48 24 12 48 22 52 22 4 0
8 -20 8 -45z"/>
<path d="M6460 1625 l0 -145 50 0 50 0 0 145 0 145 -50 0 -50 0 0 -145z"/>
<path d="M6820 1625 l0 -145 50 0 50 0 0 145 0 145 -50 0 -50 0 0 -145z"/>
<path d="M2864 1345 c-8 -21 4 -35 30 -35 31 0 50 22 34 38 -17 17 -58 15 -64
-3z"/>
<path d="M3694 1345 c-8 -21 4 -35 30 -35 31 0 50 22 34 38 -17 17 -58 15 -64
-3z"/>
<path d="M4015 1339 l-30 -19 26 0 c26 0 99 26 99 35 0 13 -68 1 -95 -16z"/>
<path d="M6010 1315 l0 -35 -60 0 c-99 0 -150 -32 -150 -94 0 -38 10 -55 41
-71 36 -19 96 -19 134 1 27 14 31 14 41 0 6 -9 19 -16 28 -16 14 0 16 16 16
125 l0 125 -25 0 c-22 0 -25 -4 -25 -35z m0 -105 c0 -48 -1 -50 -40 -70 -47
-24 -68 -25 -98 -4 -29 20 -30 76 -2 104 16 16 33 20 80 20 l60 0 0 -50z"/>
<path d="M1737 1298 c-14 -24 -43 -75 -66 -115 -22 -39 -41 -74 -41 -77 0 -18
50 -3 64 19 16 24 22 25 105 25 84 0 88 -1 99 -25 11 -24 14 -25 120 -25 121
0 168 11 178 42 6 20 7 20 16 4 22 -40 148 -61 212 -36 55 21 80 72 60 125
-11 29 -65 49 -134 49 -95 0 -150 -35 -150 -94 0 -17 -3 -19 -18 -11 -11 6
-51 17 -91 26 -57 13 -71 20 -69 33 3 14 18 18 81 20 84 3 101 16 35 26 -79
13 -178 -14 -178 -48 0 -23 28 -38 103 -55 126 -29 89 -71 -49 -56 l-63 7 -58
104 c-57 103 -58 104 -95 104 -33 0 -40 -4 -61 -42z m123 -110 c0 -5 -29 -8
-65 -8 -36 0 -65 3 -65 6 0 3 15 32 32 64 l33 59 32 -57 c18 -31 33 -60 33
-64z m554 51 c46 -36 24 -99 -40 -115 -41 -10 -103 13 -114 42 -14 36 -13 42
15 69 32 33 100 35 139 4z"/>
<path d="M4782 1325 c-54 -17 -78 -38 -92 -80 -15 -45 7 -98 50 -120 40 -21
123 -30 184 -21 41 6 46 10 47 34 1 22 3 23 6 6 8 -41 86 -56 166 -32 32 10
41 10 45 0 2 -7 12 -12 23 -12 17 0 19 8 19 68 0 101 -7 107 -126 107 -57 0
-99 -4 -101 -10 -2 -7 24 -9 72 -7 80 4 105 -5 105 -39 0 -17 -8 -19 -78 -19
-53 0 -84 -5 -98 -15 -28 -21 -34 -18 -34 15 l0 30 -65 0 c-37 0 -65 -4 -65
-10 0 -5 20 -10 45 -10 l45 0 0 -40 c0 -34 -4 -41 -25 -46 -43 -11 -115 6
-141 31 -36 36 -33 95 6 129 36 30 99 41 158 28 32 -8 42 -7 42 3 0 27 -114
33 -188 10z m398 -156 c0 -33 -87 -61 -134 -43 -24 9 -19 43 7 54 12 5 46 9
75 9 46 1 52 -1 52 -20z"/>
<path d="M2640 1284 c-8 -1 -31 -5 -51 -9 -47 -7 -89 -48 -89 -87 0 -60 71
-94 184 -86 76 5 70 26 -6 24 -78 -1 -118 20 -118 63 0 47 32 66 111 66 49 0
69 4 69 13 0 7 -13 12 -29 12 -16 0 -35 2 -43 4 -7 2 -20 2 -28 0z"/>
<path d="M3113 1283 c-26 -2 -43 -9 -43 -17 0 -10 18 -12 73 -8 60 4 76 1 90
-13 9 -9 17 -20 17 -24 0 -5 -33 -11 -74 -14 -72 -5 -113 -18 -128 -41 -12
-17 -10 -24 12 -46 23 -23 108 -28 157 -9 19 7 29 7 31 0 2 -6 15 -11 28 -11
23 0 24 2 24 75 0 66 -2 76 -22 89 -26 17 -102 26 -165 19z m135 -120 c-4 -21
-81 -47 -114 -39 -29 8 -43 34 -23 47 8 5 42 9 77 9 54 0 63 -3 60 -17z"/>
<path d="M3470 1284 c-8 -1 -31 -5 -51 -9 -47 -7 -89 -48 -89 -87 0 -60 71
-94 184 -86 76 5 70 26 -6 24 -78 -1 -118 20 -118 63 0 47 32 66 111 66 49 0
69 4 69 13 0 7 -13 12 -29 12 -16 0 -35 2 -43 4 -7 2 -20 2 -28 0z"/>
<path d="M3953 1281 c-102 -26 -127 -121 -43 -163 39 -20 133 -24 174 -8 55
21 80 72 60 125 -14 37 -123 63 -191 46z m121 -42 c46 -36 24 -99 -40 -115
-41 -10 -103 13 -114 42 -14 36 -13 42 15 69 32 33 100 35 139 4z"/>
<path d="M4255 1275 c-24 -8 -41 -11 -43 -5 -2 6 -15 10 -28 10 -24 0 -24 -1
-24 -90 0 -89 0 -90 25 -90 24 0 25 3 25 60 0 57 2 61 33 80 36 22 87 26 105
8 7 -7 12 -40 12 -80 0 -66 1 -68 25 -68 24 0 25 2 25 73 0 58 -4 77 -18 90
-26 24 -90 29 -137 12z"/>
<path d="M2790 1270 c0 -5 20 -10 45 -10 l45 0 0 -65 0 -65 -50 0 c-38 0 -50
-4 -50 -15 0 -13 21 -15 126 -15 96 0 125 3 122 13 -3 6 -25 13 -51 15 l-47 3
0 75 0 74 -70 0 c-40 0 -70 -4 -70 -10z"/>
<path d="M3620 1270 c0 -5 20 -10 45 -10 l45 0 0 -65 0 -65 -50 0 c-38 0 -50
-4 -50 -15 0 -13 21 -15 126 -15 96 0 125 3 122 13 -3 6 -25 13 -51 15 l-47 3
0 75 0 74 -70 0 c-40 0 -70 -4 -70 -10z"/>
<path d="M5260 1190 c0 -89 0 -90 25 -90 24 0 25 2 25 63 0 59 2 64 29 80 34
20 92 22 109 5 7 -7 12 -40 12 -80 0 -66 1 -68 25 -68 24 0 25 2 25 74 0 66
-3 77 -22 90 -28 20 -114 21 -150 2 -24 -13 -28 -13 -28 0 0 8 -10 14 -25 14
-25 0 -25 -1 -25 -90z"/>
<path d="M5568 1274 c-17 -16 -5 -19 67 -16 80 4 105 -5 105 -39 0 -17 -8 -19
-78 -19 -86 0 -122 -16 -122 -54 0 -42 79 -59 163 -34 32 10 41 10 45 0 2 -7
12 -12 23 -12 17 0 19 8 19 68 0 99 -8 106 -122 110 -51 2 -96 0 -100 -4z
m172 -105 c0 -33 -87 -61 -134 -43 -24 9 -19 43 7 54 12 5 46 9 75 9 46 1 52
-1 52 -20z"/>
<path d="M6130 1262 c-59 -29 -67 -104 -15 -138 29 -19 136 -30 189 -20 62 12
40 21 -49 21 -73 0 -87 3 -106 21 -35 36 -17 44 97 44 l104 0 0 25 c0 58 -139
88 -220 47z m153 -14 c9 -5 17 -18 17 -28 0 -18 -7 -20 -85 -20 -47 0 -85 4
-85 8 0 18 27 43 55 51 31 9 67 5 98 -11z"/>
<path d="M6390 1190 c0 -83 1 -90 20 -90 18 0 20 7 20 59 0 53 3 61 27 76 15
10 46 20 69 23 35 4 45 1 56 -17 7 -11 20 -21 29 -21 12 0 15 -7 12 -24 -3
-16 4 -33 24 -55 22 -25 39 -33 80 -38 69 -8 116 3 153 33 39 34 41 80 4 115
-23 22 -34 24 -114 24 -71 0 -92 -3 -108 -18 -20 -18 -21 -18 -41 2 -26 26
-111 29 -155 6 -35 -18 -36 -18 -36 0 0 8 -9 15 -20 15 -19 0 -20 -7 -20 -90z
m450 50 c29 -29 26 -74 -7 -100 -23 -18 -37 -21 -77 -17 -80 7 -111 63 -61
112 32 33 114 36 145 5z"/>
<path d="M6965 1268 c-61 -34 -34 -64 77 -87 117 -25 88 -67 -39 -59 -51 4
-73 2 -70 -6 4 -13 116 -20 164 -11 17 3 42 14 55 24 22 18 22 20 5 39 -11 12
-43 25 -80 32 -82 16 -102 27 -86 46 8 10 33 14 85 14 43 0 74 4 74 10 0 14
-160 12 -185 -2z"/>
</g>
</svg>
