<?xml version="1.0" standalone="no"?>
<!DOCTYPE svg PUBLIC "-//W3C//DTD SVG 20010904//EN"
 "http://www.w3.org/TR/2001/REC-SVG-20010904/DTD/svg10.dtd">
<svg version="1.0" xmlns="http://www.w3.org/2000/svg"
 width="898.000000pt" height="562.000000pt" viewBox="0 0 898.000000 562.000000"
 preserveAspectRatio="xMidYMid meet">
<metadata>
Created by potrace 1.16, written by Peter Selinger 2001-2019
</metadata>
<g transform="translate(0.000000,562.000000) scale(0.100000,-0.100000)"
fill="#000000" stroke="none">
<path d="M4160 4185 c-6 -8 -9 -22 -6 -33 7 -21 -34 -65 -75 -81 -23 -8 -30
-6 -55 20 -38 40 -107 65 -139 51 -32 -15 -52 -48 -60 -102 l-7 -45 22 20 23
20 -8 -25 c-6 -20 -5 -23 6 -12 19 17 34 15 19 -3 -11 -13 -10 -14 4 -9 9 3
16 1 16 -5 0 -6 7 -11 15 -11 8 0 24 -18 35 -40 13 -26 34 -47 55 -57 25 -12
35 -23 35 -40 0 -19 -5 -23 -32 -23 -18 1 -44 7 -58 15 -45 26 -88 17 -58 -13
8 -8 8 -15 -3 -28 -13 -15 -10 -16 26 -10 113 19 125 19 125 -2 0 -11 -11 -56
-24 -99 -14 -43 -39 -132 -56 -198 -17 -66 -43 -157 -56 -202 l-25 -83 -35 0
-34 0 0 -140 0 -140 -45 0 -45 0 0 249 0 250 24 3 24 3 -56 140 c-30 77 -56
141 -57 142 -1 2 -76 25 -167 52 l-166 50 -153 -46 c-85 -24 -159 -46 -164
-48 -8 -2 -66 -137 -122 -281 -4 -10 3 -14 21 -14 l26 0 0 -251 0 -250 -42 3
-43 3 -2 120 c-1 66 -2 128 -2 138 -1 10 -9 17 -22 17 -21 0 -21 1 -16 326 3
203 1 340 -5 363 -14 50 -83 116 -136 130 -87 24 -176 -18 -218 -102 -25 -48
-25 -52 -24 -290 2 -452 4 -427 -25 -427 l-25 0 0 -299 c0 -299 0 -300 -22
-307 -29 -9 -177 -95 -253 -147 -165 -113 -246 -185 -421 -374 l-39 -41 -135
-17 c-74 -9 -148 -18 -165 -21 -16 -2 -120 -15 -230 -29 -110 -14 -204 -27
-210 -30 -5 -2 303 -4 686 -4 l696 -1 29 22 c16 12 31 25 34 28 6 6 18 14 188
122 68 43 128 78 133 78 6 0 38 14 71 30 101 50 323 129 451 160 319 78 640
88 927 29 52 -10 120 -24 150 -30 58 -12 101 -26 240 -80 190 -72 344 -153
547 -286 l112 -73 165 0 c147 0 165 2 159 16 -3 10 -13 14 -25 11 -15 -4 -17
-3 -8 8 21 26 -149 221 -312 359 -32 27 -58 52 -58 56 0 10 165 38 305 51 420
39 907 -77 1320 -316 112 -64 268 -166 273 -177 2 -5 223 -8 490 -7 551 1 545
-7 47 69 -249 38 -261 41 -283 68 -53 61 -201 207 -263 258 -230 193 -616 383
-912 450 -43 10 -67 20 -64 27 3 7 13 32 22 57 10 25 23 51 29 59 9 12 6 13
-16 7 -27 -6 -28 -5 -28 31 0 38 -25 101 -55 138 -16 20 -16 20 -35 -5 -26
-33 -53 -116 -47 -141 6 -24 1 -24 -31 2 -23 18 -27 19 -30 5 -2 -9 -10 -16
-17 -16 -11 0 -13 8 -9 29 9 42 -48 161 -76 161 -14 0 -60 -106 -60 -138 0
-35 -6 -38 -34 -17 -19 15 -46 21 -33 9 6 -6 -35 -44 -47 -44 -3 0 -6 16 -6
35 0 35 -34 120 -52 131 -26 16 -77 -74 -80 -141 -3 -50 -2 -49 -29 -35 -22
13 -24 4 -4 -30 22 -38 19 -40 -40 -40 -63 0 -72 15 -26 43 20 12 32 30 41 64
7 27 21 63 31 81 20 35 8 43 -23 15 -17 -15 -18 -15 -18 1 0 34 -31 124 -50
146 l-19 21 -35 -53 c-29 -43 -36 -62 -36 -102 0 -39 -3 -47 -12 -38 -7 7 -18
12 -25 12 -8 0 -4 -17 12 -52 14 -29 25 -58 25 -65 0 -6 11 -20 25 -31 14 -11
25 -24 25 -29 0 -5 -69 -17 -153 -26 -210 -23 -399 -63 -562 -119 l-60 -20
-88 27 -87 27 0 219 0 219 -29 0 c-20 0 -31 6 -35 18 -6 21 -61 217 -81 292
-9 30 -22 91 -30 134 -8 44 -19 84 -25 90 -5 5 -10 23 -10 38 0 25 3 28 35 28
25 0 35 -4 35 -16 0 -9 3 -14 8 -12 74 36 74 37 31 62 -29 17 -32 17 -41 2 -5
-9 -22 -16 -38 -16 -25 0 -30 4 -30 24 0 17 7 26 24 30 36 9 80 66 112 145 16
39 35 71 42 71 6 0 12 3 13 8 0 4 2 19 4 35 2 15 -1 27 -7 27 -5 0 -8 6 -5 14
4 10 0 12 -14 9 -13 -4 -19 0 -19 11 0 20 -43 22 -60 1z m-590 -1025 l0 -250
-24 0 c-17 0 -50 28 -121 105 -53 58 -100 105 -104 105 -4 0 -50 -47 -102
-105 -66 -73 -101 -105 -116 -105 l-23 0 0 250 0 250 245 0 245 0 0 -250z
m568 201 c19 -62 21 -61 -88 -61 -55 0 -100 3 -100 6 0 3 5 25 11 50 l11 44
78 0 77 0 11 -39z m37 -133 l7 -38 -131 0 c-141 0 -142 0 -121 54 9 25 12 25
117 28 59 2 111 1 115 -2 3 -3 10 -22 13 -42z"/>
<path d="M3149 3353 c17 -21 62 -72 101 -113 l70 -75 100 105 c55 58 100 108
100 113 0 4 -90 7 -201 7 l-201 0 31 -37z"/>
<path d="M3100 3148 c0 -170 3 -216 13 -212 16 8 181 193 184 207 2 7 -42 59
-97 117 l-99 105 -1 -217z"/>
<path d="M3463 3281 c-40 -43 -83 -92 -97 -108 l-25 -30 94 -104 c52 -57 98
-105 103 -107 5 -1 10 92 10 213 1 118 -2 215 -6 215 -4 0 -39 -36 -79 -79z"/>
<path d="M881 1887 c-70 -27 -93 -100 -47 -150 13 -14 71 -48 129 -75 89 -42
127 -71 127 -96 0 -18 -37 -36 -76 -36 -50 0 -94 33 -94 70 0 19 -4 20 -37 15
-82 -14 -86 -19 -54 -71 30 -49 82 -68 186 -68 99 0 142 15 171 59 21 32 11
77 -27 112 -16 16 -75 51 -131 78 -89 43 -103 53 -103 75 0 62 110 65 150 3
21 -32 25 -33 102 -17 20 4 21 7 12 34 -19 52 -70 74 -179 77 -59 2 -108 -2
-129 -10z"/>
<path d="M3680 1830 l0 -70 -26 10 c-14 6 -50 10 -80 10 -76 0 -109 -32 -119
-114 -18 -143 64 -226 182 -184 24 9 43 12 43 7 0 -5 25 -9 55 -9 l55 0 0 210
0 210 -55 0 -55 0 0 -70z m-22 -106 c22 -6 23 -10 20 -98 l-3 -91 -42 -3 c-56
-4 -73 21 -73 105 0 85 24 106 98 87z"/>
<path d="M6050 1690 l0 -210 55 0 c30 0 55 4 55 9 0 6 17 3 37 -6 23 -9 52
-13 76 -10 86 12 122 69 115 178 -6 80 -27 116 -74 125 -37 7 -110 1 -136 -10
-16 -7 -18 -1 -18 63 l0 71 -55 0 -55 0 0 -210z m214 24 c11 -11 16 -35 16
-83 0 -87 -12 -103 -70 -99 l-45 3 -3 92 c-2 81 -1 92 15 96 38 10 72 6 87 -9z"/>
<path d="M6640 1690 l0 -210 55 0 55 0 0 210 0 210 -55 0 -55 0 0 -210z"/>
<path d="M7220 1830 l0 -70 -26 10 c-14 6 -50 10 -80 10 -76 0 -109 -32 -119
-114 -18 -143 64 -226 182 -184 24 9 43 12 43 7 0 -5 25 -9 55 -9 l55 0 0 210
0 210 -55 0 -55 0 0 -70z m-22 -106 c22 -6 23 -10 20 -98 l-3 -91 -42 -3 c-56
-4 -73 21 -73 105 0 85 24 106 98 87z"/>
<path d="M7980 1830 l0 -70 -26 10 c-14 6 -50 10 -80 10 -76 0 -109 -32 -119
-114 -18 -143 64 -226 182 -184 24 9 43 12 43 7 0 -5 25 -9 55 -9 l55 0 0 210
0 210 -55 0 -55 0 0 -70z m-22 -106 c22 -6 23 -10 20 -98 l-3 -91 -42 -3 c-56
-4 -73 21 -73 105 0 85 24 106 98 87z"/>
<path d="M1790 1830 c0 -47 -2 -50 -25 -50 -20 0 -25 -5 -25 -25 0 -20 5 -25
25 -25 l25 0 0 -110 c0 -107 1 -110 26 -127 16 -10 53 -19 90 -21 l64 -4 0 30
c0 27 -4 31 -32 34 l-33 3 -3 98 -3 97 36 0 c31 0 35 3 35 25 0 22 -4 25 -35
25 l-35 0 0 50 0 50 -55 0 -55 0 0 -50z"/>
<path d="M5460 1830 c0 -47 -2 -50 -25 -50 -20 0 -25 -5 -25 -25 0 -20 5 -25
25 -25 l25 0 0 -110 c0 -107 1 -110 26 -127 16 -10 53 -19 90 -21 l64 -4 0 30
c0 27 -4 31 -32 34 l-33 3 -3 98 -3 97 36 0 c31 0 35 3 35 25 0 22 -4 25 -35
25 l-35 0 0 50 0 50 -55 0 -55 0 0 -50z"/>
<path d="M1250 1630 l0 -150 55 0 55 0 0 150 0 150 -55 0 -55 0 0 -150z"/>
<path d="M1453 1761 c-70 -43 -51 -89 55 -139 96 -44 116 -60 101 -79 -17 -20
-63 -16 -93 8 -24 19 -33 20 -69 12 l-42 -9 35 -36 c41 -41 92 -54 175 -43 69
8 105 35 105 79 0 42 -17 57 -112 100 -85 39 -97 50 -69 65 29 16 47 13 78
-12 22 -19 35 -22 61 -16 18 3 36 9 39 12 11 12 -7 37 -39 57 -46 28 -179 28
-225 1z"/>
<path d="M2063 1760 c-66 -40 -71 -203 -9 -257 77 -66 266 -25 266 58 0 28 -2
29 -48 29 -44 0 -49 -2 -59 -30 -9 -24 -17 -30 -42 -30 -34 0 -51 22 -51 64
l0 26 100 0 100 0 0 40 c0 89 -39 120 -152 120 -55 0 -81 -5 -105 -20z"/>
<path d="M2370 1630 l0 -150 55 0 54 0 3 118 3 117 38 9 c30 8 40 7 48 -5 5
-8 9 -65 9 -126 l0 -113 50 0 50 0 0 114 0 114 35 12 c62 20 65 15 65 -120 l0
-120 55 0 55 0 0 128 c0 162 -5 172 -91 172 -33 0 -73 -7 -88 -15 -26 -13 -30
-13 -41 0 -17 20 -122 20 -160 0 -27 -14 -30 -14 -30 0 0 12 -12 15 -55 15
l-55 0 0 -150z"/>
<path d="M2988 1764 c-29 -15 -48 -42 -48 -68 0 -13 12 -16 53 -16 45 0 54 3
62 23 18 41 85 30 85 -14 0 -13 -12 -21 -42 -29 -79 -20 -102 -30 -130 -57
-80 -77 36 -170 142 -114 32 17 40 18 40 6 0 -11 13 -15 53 -15 l53 0 -4 108
c-4 139 -6 149 -45 172 -40 25 -177 28 -219 4z"/>
<path d="M3903 1760 c-66 -40 -71 -203 -9 -257 77 -66 266 -25 266 58 0 28 -2
29 -48 29 -44 0 -49 -2 -59 -30 -9 -24 -17 -30 -42 -30 -34 0 -51 22 -51 64
l0 26 100 0 100 0 0 40 c0 89 -39 120 -152 120 -55 0 -81 -5 -105 -20z"/>
<path d="M4404 1770 c-46 -18 -64 -57 -64 -137 0 -46 6 -85 15 -103 41 -80
246 -77 283 5 22 48 17 55 -43 55 -47 0 -55 -3 -55 -19 0 -46 -65 -54 -87 -11
-16 32 -16 108 0 140 8 16 23 26 40 28 24 3 30 -2 40 -27 11 -29 14 -31 64
-31 29 0 53 4 53 9 0 29 -26 74 -51 86 -31 16 -159 20 -195 5z"/>
<path d="M4719 1752 c-31 -27 -34 -35 -37 -100 -5 -89 10 -137 50 -158 69 -36
197 -26 238 18 17 19 20 36 20 114 0 84 -2 96 -24 121 -23 26 -30 28 -119 31
-93 4 -95 3 -128 -26z m150 -31 c19 -12 27 -125 12 -163 -8 -22 -17 -28 -39
-28 -43 0 -52 16 -52 96 0 53 4 77 16 88 17 18 42 20 63 7z"/>
<path d="M5050 1630 l0 -150 55 0 55 0 0 39 c0 46 37 106 65 106 18 0 20 -8
23 -72 l3 -73 54 0 55 0 0 140 c0 155 -2 160 -70 160 -43 0 -66 -14 -100 -62
l-30 -41 0 51 0 52 -55 0 -55 0 0 -150z"/>
<path d="M5728 1764 c-29 -15 -48 -42 -48 -68 0 -13 12 -16 53 -16 45 0 54 3
62 23 18 41 85 30 85 -14 0 -13 -12 -21 -42 -29 -79 -20 -102 -30 -130 -57
-80 -77 36 -170 142 -114 32 17 40 18 40 6 0 -11 13 -15 53 -15 l53 0 -4 108
c-4 139 -6 149 -45 172 -40 25 -177 28 -219 4z"/>
<path d="M6460 1630 l0 -150 55 0 55 0 0 150 0 150 -55 0 -55 0 0 -150z"/>
<path d="M6820 1630 l0 -150 55 0 55 0 0 150 0 150 -55 0 -55 0 0 -150z"/>
<path d="M7438 1764 c-29 -15 -48 -42 -48 -68 0 -13 12 -16 53 -16 45 0 54 3
62 23 18 41 85 30 85 -14 0 -13 -12 -21 -42 -29 -79 -20 -102 -30 -130 -57
-80 -77 36 -170 142 -114 32 17 40 18 40 6 0 -11 13 -15 53 -15 l53 0 -4 108
c-4 139 -6 149 -45 172 -40 25 -177 28 -219 4z"/>
<path d="M6000 1326 l0 -33 -71 -5 c-53 -4 -79 -11 -102 -28 -21 -16 -32 -19
-35 -12 -7 23 -61 42 -120 42 -88 0 -122 -9 -122 -31 0 -15 5 -18 23 -15 93
19 149 13 155 -17 3 -15 -6 -17 -63 -17 -36 0 -81 -7 -100 -14 -29 -12 -35
-20 -35 -45 0 -20 7 -34 20 -41 36 -19 103 -22 148 -7 23 8 42 11 42 6 0 -5
14 -9 30 -9 19 0 30 5 30 14 0 11 8 10 37 -5 45 -23 82 -24 131 -4 24 10 38
12 40 5 2 -5 17 -10 33 -10 27 0 29 3 30 38 0 29 2 33 9 17 12 -32 33 -44 93
-56 69 -14 167 -4 167 17 0 11 -17 14 -78 14 -75 0 -122 15 -122 41 0 5 48 9
110 9 105 0 110 1 110 21 0 56 -53 89 -142 89 -62 0 -117 -25 -135 -60 -11
-22 -13 -16 -13 53 l0 77 -35 0 c-33 0 -35 -2 -35 -34z m-12 -76 c8 0 12 -15
12 -43 0 -39 -4 -46 -32 -61 -68 -37 -133 4 -108 68 10 27 59 48 95 40 11 -2
26 -4 33 -4z"/>
<path d="M4820 1343 c-95 -16 -140 -58 -140 -130 0 -36 6 -50 28 -73 39 -39
125 -56 212 -43 45 7 82 7 116 0 41 -8 61 -7 98 5 25 8 46 11 46 7 0 -5 14 -9
30 -9 l30 0 0 64 c0 35 -3 72 -6 81 -11 27 -60 45 -122 45 -88 0 -122 -9 -122
-31 0 -15 5 -18 23 -15 92 19 149 13 155 -16 3 -13 -11 -17 -75 -20 -43 -3
-86 -8 -95 -12 -15 -7 -18 -3 -18 18 0 26 -1 26 -75 26 -68 0 -75 -2 -75 -20
0 -17 7 -20 45 -20 45 0 45 0 45 -35 l0 -35 -47 0 c-98 0 -159 64 -119 126 27
41 80 57 159 50 61 -6 67 -4 67 13 0 25 -81 37 -160 24z"/>
<path d="M1719 1278 c-20 -35 -51 -89 -69 -120 l-32 -58 36 0 c29 0 39 5 48
25 11 24 15 25 93 25 76 0 83 -2 94 -24 12 -22 22 -24 105 -31 102 -7 173 4
196 32 14 17 16 18 32 1 56 -57 243 -40 264 24 6 22 7 22 20 -4 22 -41 105
-64 194 -52 38 5 50 11 50 24 0 15 -8 17 -67 13 -59 -5 -72 -2 -95 17 -33 25
-36 50 -9 74 28 26 78 36 127 27 38 -7 44 -6 44 9 0 23 -20 30 -83 30 -70 0
-119 -15 -147 -45 l-23 -25 -15 21 c-33 48 -144 64 -222 33 -43 -17 -60 -39
-60 -74 0 -17 -4 -20 -17 -15 -10 4 -47 14 -83 23 -36 8 -69 18 -74 23 -17 15
47 31 102 24 48 -6 52 -5 52 14 0 19 -6 21 -75 21 -96 0 -145 -19 -145 -55 0
-29 32 -47 105 -60 102 -19 91 -45 -20 -45 -38 0 -75 4 -82 8 -7 4 -36 50 -65
102 l-54 95 -45 3 -44 3 -36 -63z m668 -28 c42 0 58 -78 21 -104 -33 -23 -103
-21 -128 4 -48 48 3 118 75 104 11 -2 25 -4 32 -4z"/>
<path d="M2780 1270 c0 -17 7 -20 45 -20 l45 0 0 -60 0 -60 -50 0 c-38 0 -50
-4 -50 -15 0 -13 21 -15 130 -15 109 0 130 2 130 15 0 11 -12 15 -45 15 l-45
0 0 80 0 80 -80 0 c-73 0 -80 -2 -80 -20z"/>
<path d="M3083 1283 c-15 -3 -23 -12 -23 -24 0 -15 5 -18 23 -15 93 19 149 13
155 -17 3 -15 -6 -17 -63 -17 -36 0 -81 -7 -100 -14 -29 -12 -35 -20 -35 -45
0 -20 7 -34 20 -41 36 -19 103 -22 148 -7 23 8 42 11 42 6 0 -5 14 -9 30 -9
l30 0 0 64 c0 79 -5 93 -41 111 -27 14 -132 19 -186 8z"/>
<path d="M3406 1280 c-64 -20 -95 -85 -66 -139 18 -34 109 -56 190 -45 38 5
50 11 50 24 0 15 -8 17 -67 13 -59 -5 -72 -2 -95 17 -33 25 -36 50 -9 74 28
26 78 36 127 27 38 -7 44 -6 44 9 0 10 -7 21 -16 24 -22 9 -124 6 -158 -4z"/>
<path d="M3610 1270 c0 -17 7 -20 45 -20 l45 0 0 -60 0 -60 -50 0 c-38 0 -50
-4 -50 -15 0 -13 21 -15 130 -15 109 0 130 2 130 15 0 11 -12 15 -45 15 l-45
0 0 80 0 80 -80 0 c-73 0 -80 -2 -80 -20z"/>
<path d="M3914 1271 c-23 -10 -44 -26 -47 -36 -13 -33 -7 -85 12 -104 28 -28
97 -44 154 -37 64 9 95 24 112 55 l14 26 1 -37 c0 -35 2 -38 30 -38 30 0 30 0
30 60 0 51 3 62 23 74 74 48 117 21 117 -74 l0 -60 30 0 30 0 0 70 c0 62 -3
74 -25 95 -19 20 -34 25 -75 25 -28 0 -64 -7 -80 -15 -27 -14 -30 -14 -30 0 0
9 -9 15 -25 15 -22 0 -25 -4 -25 -37 l0 -37 -16 23 c-36 51 -152 67 -230 32z
m133 -21 c42 0 58 -78 21 -104 -33 -23 -103 -21 -128 4 -48 48 3 118 75 104
11 -2 25 -4 32 -4z"/>
<path d="M5260 1195 l0 -95 30 0 c30 0 30 0 30 60 0 51 3 62 23 74 74 48 117
21 117 -74 l0 -60 30 0 30 0 0 70 c0 62 -3 74 -25 95 -19 20 -34 25 -75 25
-28 0 -64 -7 -80 -15 -27 -14 -30 -14 -30 0 0 9 -9 15 -25 15 -25 0 -25 0 -25
-95z"/>
<path d="M6380 1195 l0 -95 30 0 c30 0 30 0 30 58 0 48 3 59 22 71 55 34 118
32 118 -4 0 -8 9 -15 20 -15 16 0 20 -7 20 -30 0 -59 79 -98 174 -85 66 8 101
28 116 65 16 40 5 75 -32 103 -39 29 -135 35 -193 12 -41 -15 -46 -15 -67 -1
-28 20 -98 21 -143 2 -31 -13 -35 -13 -35 0 0 9 -10 14 -30 14 l-30 0 0 -95z
m427 55 c42 0 58 -78 21 -104 -33 -23 -103 -21 -128 4 -48 48 3 118 75 104 11
-2 25 -4 32 -4z"/>
<path d="M6963 1275 c-25 -10 -33 -20 -33 -39 0 -30 18 -41 101 -60 114 -27
92 -52 -41 -44 -61 3 -70 1 -70 -13 0 -35 174 -37 228 -3 30 19 29 58 -2 72
-13 6 -51 16 -85 23 -34 6 -64 16 -67 20 -10 17 50 31 104 24 48 -6 52 -5 52
14 0 19 -6 21 -77 21 -44 -1 -92 -7 -110 -15z"/>
</g>
</svg>
